<svg xmlns="http://www.w3.org/2000/svg" viewBox="0 0 900 600" width="900" height="600">
  <defs>
    <linearGradient id="bg" x1="0" y1="0" x2="1" y2="1">
      <stop offset="0%" stop-color="#E0F2FE" />
      <stop offset="100%" stop-color="#EFF6FF" />
    </linearGradient>
    <linearGradient id="heroGlow" x1="0" y1="0" x2="1" y2="1">
      <stop offset="0%" stop-color="#60A5FA" />
      <stop offset="100%" stop-color="#38BDF8" />
    </linearGradient>
    <linearGradient id="accent" x1="0" y1="0" x2="1" y2="0">
      <stop offset="0%" stop-color="#2563EB" />
      <stop offset="100%" stop-color="#0EA5E9" />
    </linearGradient>
  </defs>

  <rect width="900" height="600" rx="40" fill="url(#bg)" />
  <circle cx="150" cy="120" r="90" fill="#C7D2FE" opacity="0.9" />
  <circle cx="780" cy="90" r="65" fill="#93C5FD" opacity="0.85" />
  <circle cx="760" cy="520" r="75" fill="#A5F3FC" opacity="0.7" />

  <g opacity="0.95">
    <rect x="90" y="320" width="260" height="200" rx="28" fill="#FFFFFF" />
    <rect x="110" y="345" width="220" height="130" rx="18" fill="#EFF6FF" />
    <rect x="120" y="365" width="180" height="18" rx="9" fill="#2563EB" />
    <rect x="120" y="395" width="190" height="16" rx="8" fill="#38BDF8" />
    <rect x="120" y="425" width="150" height="16" rx="8" fill="#0EA5E9" />
    <rect x="120" y="455" width="90" height="16" rx="8" fill="#60A5FA" />
    <path d="M180 470 h120" stroke="#2563EB" stroke-width="14" stroke-linecap="round" />
  </g>

  <g>
    <rect x="400" y="260" width="320" height="210" rx="32" fill="#FFFFFF" stroke="#93C5FD" stroke-width="8" />
    <rect x="440" y="300" width="240" height="120" rx="18" fill="#EFF6FF" />
    <path d="M460 330 h180" stroke="#2563EB" stroke-width="16" stroke-linecap="round" />
    <path d="M460 370 h140" stroke="#0EA5E9" stroke-width="14" stroke-linecap="round" />
    <path d="M460 410 h160" stroke="#38BDF8" stroke-width="14" stroke-linecap="round" />
    <path d="M460 450 h120" stroke="#2563EB" stroke-width="14" stroke-linecap="round" />
    <circle cx="520" cy="450" r="12" fill="#2563EB" />
    <circle cx="575" cy="450" r="12" fill="#0EA5E9" />
  </g>

  <g>
    <rect x="240" y="120" width="280" height="180" rx="28" fill="#FFFFFF" opacity="0.96" stroke="#93C5FD" stroke-width="8" />
    <path d="M280 170 h200" stroke="#2563EB" stroke-width="18" stroke-linecap="round" />
    <path d="M280 220 h160" stroke="#0EA5E9" stroke-width="14" stroke-linecap="round" />
    <path d="M280 270 h190" stroke="#38BDF8" stroke-width="14" stroke-linecap="round" />
    <path d="M280 320 h140" stroke="#2563EB" stroke-width="14" stroke-linecap="round" />
    <circle cx="320" cy="300" r="10" fill="#2563EB" />
  </g>

  <g>
    <path d="M520 250 c20 -50 70 -80 125 -60 c55 20 90 80 70 140" fill="none" stroke="#60A5FA" stroke-width="18" stroke-linecap="round" />
    <path d="M390 190 c30 -40 85 -55 135 -40" fill="none" stroke="#38BDF8" stroke-width="18" stroke-linecap="round" />
    <circle cx="580" cy="190" r="22" fill="#FBCFE8" />
    <circle cx="615" cy="196" r="10" fill="#EC4899" />
    <circle cx="590" cy="220" r="8" fill="#60A5FA" />
  </g>

  <g fill="#FFFFFF" stroke="#2563EB" stroke-width="8" opacity="0.95">
    <path d="M170 460 q-35 -25 -10 -65 q30 -40 70 -35 q40 5 55 30 q15 25 8 52 q-10 40 -68 48 q-45 6 -55 -30" fill="#FFFFFF" />
    <path d="M170 460 c15 -42 50 -63 90 -60" stroke="#38BDF8" />
  </g>

  <g>
    <path d="M170 460 c20 -40 66 -60 110 -52 c45 8 82 38 95 72" stroke="#2563EB" stroke-width="10" fill="none" />
    <circle cx="215" cy="430" r="16" fill="#FBBF24" />
    <circle cx="245" cy="410" r="18" fill="#F472B6" />
    <circle cx="292" cy="410" r="14" fill="#60A5FA" />
  </g>

  <g>
    <rect x="110" y="180" width="130" height="190" rx="20" fill="#FFFFFF" stroke="#93C5FD" stroke-width="8" opacity="0.96" />
    <path d="M150 220 c0 -35 45 -30 60 -10 c10 15 8 42 -14 58 c-24 18 -55 10 -59 -16" fill="#FEE2E2" />
    <path d="M172 210 c10 -25 40 -32 54 -20" stroke="#2563EB" stroke-width="10" fill="none" />
    <circle cx="156" cy="305" r="20" fill="#EC4899" />
    <rect x="145" y="338" width="30" height="48" rx="12" fill="#2563EB" />
    <rect x="195" y="338" width="30" height="48" rx="12" fill="#60A5FA" />
  </g>

  <g>
    <rect x="530" y="360" width="160" height="130" rx="20" fill="#FFFFFF" stroke="#93C5FD" stroke-width="8" opacity="0.96" />
    <path d="M560 360 c-18 30 20 58 42 58 c25 0 55 -34 44 -62" fill="#C7D2FE" />
    <circle cx="590" cy="375" r="24" fill="#FBBF24" />
    <rect x="575" y="402" width="30" height="52" rx="12" fill="#2563EB" />
    <rect x="618" y="402" width="30" height="52" rx="12" fill="#0EA5E9" />
  </g>

  <g>
    <circle cx="470" cy="490" r="35" fill="#FDE68A" />
    <path d="M455 495 l12 14 l18 -22" stroke="#92400E" stroke-width="10" fill="none" />
  </g>

  <path d="M520 500 l-40 -80 l-80 -40" stroke="#2563EB" stroke-width="12" fill="none" opacity="0.8" />
  <path d="M640 160 c22 -14 50 -18 75 -10" stroke="#2563EB" stroke-width="10" fill="none" opacity="0.8" />

  <g opacity="0.95">
    <path d="M560 120 l120 -40" stroke="#2563EB" stroke-width="10" stroke-linecap="round" />
    <circle cx="690" cy="80" r="12" fill="#F472B6" />
    <circle cx="630" cy="95" r="10" fill="#60A5FA" />
    <circle cx="660" cy="110" r="8" fill="#22D3EE" />
    <circle cx="680" cy="130" r="6" fill="#ffffff" />
  </g>

  <g opacity="0.7">
    <rect x="650" y="180" width="190" height="120" rx="24" fill="#FFFFFF" />
    <path d="M680 210 h120" stroke="#2563EB" stroke-width="14" stroke-linecap="round" />
    <path d="M680 250 h80" stroke="#0EA5E9" stroke-width="12" stroke-linecap="round" />
  </g>

  <path d="M160 250 c35 15 70 12 110 -12" stroke="#2563EB" stroke-width="18" fill="none" opacity="0.4" />
  <path d="M450 530 c90 -40 160 -130 190 -230" stroke="#38BDF8" stroke-width="20" fill="none" opacity="0.25" />

</svg>
